<svg xmlns="http://www.w3.org/2000/svg" width="259" height="324" fill="none" id="man"><path fill="#fff" fill-rule="evenodd" d="M245.914 194.941a104.754 104.754 0 0 0 6.356-3.636c1.465-.877.168-3.084-1.334-2.287-.768.408-1.533.821-2.301 1.226a13.425 13.425 0 0 0 1.667-1.705l-.035-.035c1.936-1.735-.551-5.009-2.752-3.584-1.942 1.408-3.902 2.845-6.131 3.772-4.616 1.959-9.708 2.283-14.663 2.339-1.814-.136-3.546.178-5.305.528.69-2.768 2.416-4.858 3.332-7.54.675-2.707-3.231-4.55-4.615-1.948a59.45 59.45 0 0 0-.98 1.935c-2.992 2.722-7.988 2.482-11.006 5.405-1.719 1.526-2.56 3.597-2.892 5.675-.226 1.412.125 2.826-.728 4.076-4.124 5.835-10.639 15.058-13.949 21.48-2.342-15.26-8.598-34.133-15.061-48.086-2.137-4.462-4.582-8.822-7.792-12.604.364-1.262-.92-3.501-1.737-2.812-2.513-3.071-6.956-3.866-10.529-5.393-4.822-2.063-8.824-6.351-10.79-11.225-2.528-9.281-8.749-10.46-17.377-10.05-8.257-.01-14.366 3.523-16.168 11.932-3.66 6.382-12.302 5.327-18.52 7.016-4.556 1.042-8.978 2.652-13.18 4.696-4.676-4.437-21.42 14.182-22.942 18.974.896.173 1.787.383 2.669.637.786.228.456 1.415-.337 1.225-.986-.237-1.979-.4-2.976-.513-.03.095-.057.19-.077.284l-.336-.025c.248.129.487.279.72.473.563.467-.17 1.37-.768.997-.563-.422-1.301-.355-1.977-.497-.04 1.391-5-.165-5.77-.625-3.423-.429-6.945.031-10.141-1.621-4.253-.896-8.537-1.886-12.742-3.027-1.113.434-2.16 1.987-1.276 3.127.498.519-.142 1.366-.768.997-2.1-1.237-3.724-3.167-5.101-5.247-.648-.654-1.799-.513-2.67-.785-.116.21-.185.443-.184.682-3.694.608-1.059 4.645.798 5.902-.985.642-1.022 1.898-.936 2.948-.209.374-.278.837-.097 1.256.695 1.601 2.197 2.95 3.34 4.247 1.26 1.433 2.385 2.874 3.92 4.035 5.85 4.461 12.909 6.955 20.15 7.93 2.572.395 6.27 1 7.863 3.175-.39 2.581-1.108 5.057-1.759 7.574-.91 3.342-.848 6.84-.86 10.246-.127-.102-.371-.081-.408.114-.211 1.412-.369 2.856-1.227 4.043-.752 2.206-1.252 4.559-1.534 6.877-1.126 10.99-1.395 22.303 1.145 33.121a39.203 39.203 0 0 0 4.746 11.339c.647 1.048 1.688 1.355 2.623 1.149 3.13 1.626 7.07 2.147 10.443 1.734 11.498-3.256 7.492 4.585 23.612 2.184 27.825-3.546 55.946 3.422 83.712-.669.684 5.284 9.636 3.768 12.746 1.535 9.324-6.935 13.954-28.889 18.633-40.026 3.217-8.778 8.603-24.326 15.656-30.216 2.115-1.655 4.672-2.526 7.23-3.23 9.547-2.461 19.13-4.788 28.695-7.181 1.622-.399 1.331-3.167-.404-2.989-2.302.235-4.612.449-6.921.671Z" clip-rule="evenodd"></path><path fill="#000" fill-rule="evenodd" d="M33.39 193.294c-.647-.08-1.28-.311-1.91-.492a30.566 30.566 0 0 1-2.831-.983c-1.914-.767-3.771-1.674-5.512-2.784-2.812-1.794-5.297-4.094-7.17-6.862l-.13-.193c-1.07-1.631-3.043-5.25-.83-6.488-1.426-1.192-2.774-3.333-2.698-4.986.108-2.337 2.973-2.306 4.454-1.315.97.649 1.696 1.558 2.425 2.452a40.36 40.36 0 0 0 3.287 3.561l.245.231a3.174 3.174 0 0 1-.1-.279c-.495-1.541.094-3.547 1.634-4.252.943-.433 1.922-.169 2.835.198l.14.057c1.23.509 2.474.96 3.754 1.321 5.219 1.473 10.665 1.718 16.012 2.454 2.06.285 4.158.644 6.207 1.173.782-3.32 2.698-6.503 4.777-9.122 9.955-12.527 26.372-16.667 41.391-19.347 1.369-.243 2.504 1.57 3.301 1.141 1.51-.811 2.839-1.961 4.005-3.21 2.487-2.665 4.251-5.8 6.323-8.769 1.025-1.467 3.383-.154 2.432 1.42l-.466.77c-1.917 3.152-4.041 6.4-6.791 8.845-1.462 1.297-3.084 2.322-4.939 2.963-1.405.484-3.376.892-4.915.422l-.184-.269.184.269c4.015 5.819 9.051 10.743 14.358 15.391 5.357 4.688 11.136 8.887 16.949 12.992l.485.342c9.471-6.911 17.472-15.925 23.085-26.224-1.176-.142-2.341-.896-3.346-1.459-1.211-.68-2.349-1.492-3.237-2.574-1.933-2.356-1.681-5.394-2.03-8.253-.021-.178.213-.222.321-.133 1.048.87 1.416 2.297 1.853 3.529.482 1.355 1.027 2.471 2.132 3.424 1.028.888 2.283 1.541 3.502 2.122.629.298 3.75 1.065 4.105 1.699 5.392-1.266 10.644.922 14.639 4.612 3.86 3.566 6.693 8.2 9.194 12.776 2.669 4.882 4.855 9.972 6.74 15.202 1.91 5.31 3.374 10.735 4.179 16.323.679 4.711 1.096 9.497 1.365 14.261l.033.595a752.775 752.775 0 0 1 12.25-18.601c-.949-2.534.101-5.121 1.878-7.078 1.969-2.166 4.692-3.172 7.297-4.343l.342-.155c1.256-.573 2.507-1.204 3.592-2.062 1.043-.829 1.81-1.97 2.909-2.733 1.597-1.112 4.496-.875 4.57 1.553.038 1.334-.535 2.796-1.059 3.995-.594 1.355-1.394 2.583-2.345 3.711a.662.662 0 0 1-.141.127l-.036.023c1.314.218 2.638.393 3.988.455 2.724.124 5.476-.076 8.143-.651a29.393 29.393 0 0 0 7.829-2.875c2.098-1.137 4.042-2.608 6.425-2.954.219-.034.441-.055.669-.068.381-.021.761.427.611.803-.082.207-.169.412-.264.619-.824 1.816-2.088 3.577-3.664 4.914l-.122.102a19.727 19.727 0 0 0 1.642-.651c3.167-1.427 6.04-3.583 9.435-4.449.16-.042.323-.081.486-.116 1.05-.227 1.603.915.986 1.697-.099.127-.198.251-.302.376a38.515 38.515 0 0 1-5.028 5.195 39.74 39.74 0 0 1-1.946 1.553c-.279.211-.56.417-.844.62l-.14.099c.331-.235.659-.473.984-.719a67.609 67.609 0 0 0 6.133-2.202c.797-.328 1.416.48 1.5 1.143.284 2.224-2.184 3.832-3.79 4.902-1.61 1.073-3.382 1.889-5.197 2.544-3.489 1.262-7.154 1.835-10.813 2.348l-1.777.248c-7.035.984-14.382 2.16-19.43 7.636-2.829 3.069-4.743 6.881-6.494 10.633-1.749 3.747-3.285 7.594-4.743 11.462-1.511 4.002-2.827 8.079-4.225 12.122-1.285 3.713-2.819 7.378-4.339 11.006l-.239.572c-3.227 7.71-7.08 14.972-12.45 21.41-.886 1.063-2.316-.446-1.498-1.499 5.617-7.245 9.526-15.794 12.752-24.322 1.468-3.88 2.698-7.854 4.109-11.755l.84-2.318a511.595 511.595 0 0 1 3.432-9.241c1.493-3.878 3.135-7.71 5.013-11.417l.199-.39c1.839-3.577 4.024-7.101 7.031-9.808 5.412-4.873 12.613-6.042 19.577-6.968l2.19-.289c2.944-.391 5.896-.823 8.759-1.611 1.652-.452 3.266-1.031 4.783-1.83a19.612 19.612 0 0 0 1.764-1.046 48.51 48.51 0 0 1-4.956 1.175c-.822.15-1.636.262-2.447.34-2.089.207-4.162.199-6.302.087-.182-.011-.241-.296-.046-.332a75.041 75.041 0 0 0 4.468-.956l.446-.109c.008-.247.105-.51.308-.759.74-.9 2.144-1.361 3.118-1.997a34.114 34.114 0 0 0 2.952-2.154 37.72 37.72 0 0 0 2.486-2.225l.239-.235-.239.235c-2.15.993-4.189 2.267-6.435 3.054-1.785.627-3.657 1.05-5.546 1.2l-.117.009-.117.008c-1.971.142-3.955.085-5.897.511-.217.049-.285-.243-.09-.325 1.696-.706 3.46-.979 5.243-1.308a.535.535 0 0 1 .304-.345l.457-.218c1.358-.653 2.625-1.311 3.754-2.371a11.928 11.928 0 0 0 2.451-3.244c-2.495.547-4.686 2.439-6.955 3.502a30.986 30.986 0 0 1-7.775 2.467l-.306.052c-5.022.838-11.061.731-15.56-1.881-.144-.084-.04-.276.108-.253 1.276.209 2.539.456 3.803.676-.248-.226-.358-.632-.072-.957 1.134-1.301 2.032-2.788 2.605-4.415l.11-.318c.264-.755.711-1.927.255-2.608-.435-.649-1.46-.56-2.072-.285-1.274.575-2.122 2.01-3.195 2.876-1.17.947-2.501 1.649-3.864 2.277l-.288.131c-2.357 1.06-4.875 1.953-6.728 3.825-.997 1.006-1.855 2.264-2.142 3.673a4.24 4.24 0 0 0 .042 1.953c.137.501.425.81.26 1.319-.216.657-.978 1.444-1.371 2.029-.457.677-.911 1.355-1.365 2.033-.906 1.357-1.809 2.718-2.711 4.077a806.76 806.76 0 0 0-7.082 10.883l-.857 1.344-.453.708-.772 1.215a.6.6 0 0 1-.011.334 1.532 1.532 0 0 1-.685.818l-.054.032c-4.509 7.129-8.946 14.304-13.427 21.45a335.746 335.746 0 0 0-.657 6.547c-.441 4.942-.743 9.896-.84 14.856-.047 2.401.145 4.817.249 7.216.051 1.144.12 2.288.211 3.431l.066.81c.089 1.114.14 2.219-.26 3.281-.355.932-1.437 1.141-2.077.431-8.351-.336-16.709-.592-25.067-.751-14.96-.287-29.926-.243-44.888.047-7.515.146-15.032.351-22.544.604-3.702.123-7.405.296-11.109.347-1.995.027-5.136-.7-5.297-2.945l-.003-.069c-.25.068-.508.123-.772.163a.868.868 0 0 1-.334-.012l-.052-.013c-2.974.907-6.737-.387-9.563-1.142l-.234-.061c-2.697-.704-4.865-1.71-6.633-3.946-3.095-3.916-4.152-9.175-4.701-14.021-.516-4.561-.545-9.206.082-13.759-.37-3.709-.008-7.536.412-11.225.207-1.824.45-3.646.742-5.459.163-1.012.376-2.014.593-3.014.087-.399.16-.829.27-1.245l.05-.177c-.339.044-.708-.03-1.065-.226-.85-.467-1.097-1.412-1.112-2.316-.046-2.727.28-5.532.567-8.241a95.97 95.97 0 0 1 1.206-8.093l.134-.689c.394-1.998.845-4.061 1.639-5.939-2.981-.507-5.954-1.046-8.846-1.963a26.843 26.843 0 0 1-4.128-1.693Zm155.59 28.374c-.047.01-.091.023-.136.036-1.191.334-2.395.617-3.595.921-2.075.522-4.103 1.106-6.032 2.012-.404 5.102-1.003 10.188-1.573 15.276l-.113 1.017a149.22 149.22 0 0 1 2.706-4.825c2.85-4.85 5.766-9.663 8.743-14.437Zm-143.259.505c.006.606-.12 1.236-.188 1.82-.11.947-.199 1.898-.31 2.844a126.51 126.51 0 0 0-.565 5.717c-.09 1.22-.15 2.444-.202 3.667 1.197-4.478 2.784-8.859 4.293-13.247a5.186 5.186 0 0 1-.776-.159l-.448-.121c-.264-.068-1.12-.278-1.804-.521Zm147.032-4.17.008.201c.032.712-.395 1.113-.912 1.217.3-.473.602-.947.904-1.418Zm-137.07-33.757c1.26.112 2.497.381 3.676.845l.113.045c.872.337 2.147.76 2.432 1.691.08.264-.135.481-.382.503-.947.076-2.062-.939-2.939-1.281a13.839 13.839 0 0 0-3.033-.814 13.824 13.824 0 0 0-6.94.765c-.13.051-.21-.154-.094-.215 2.206-1.201 4.659-1.761 7.167-1.539Zm-26.728 6.045a19.724 19.724 0 0 1-.435-.4c-1.133-1.072-2.136-2.323-2.878-3.697l-.196-.372c-.605-1.172-1.348-2.841.074-3.685.85-.505 1.872-.379 2.818-.072.061.019.123.04.184.061.423.148.83.326 1.194.495 1.578.725 2.97 1.779 4.428 2.709 1.58 1.009 3.139 1.653 4.962 2.03l.172.035c1.71.338 3.566.556 4.76 1.964.3.355.025 1.02-.493.845-3.3-1.114-6.792-1.359-9.822-3.187-1.255-.757-2.442-1.625-3.724-2.342-.68-.381-1.383-.714-2.131-.942l-.41-.12c-.239-.07-.525-.139-.717-.071-.366.127-.25.323-.136.665l.011.035c.89 2.752 3.425 5.055 5.774 6.579.54.351 1.09.672 1.652.97 3.804 2.029 8.06 2.973 12.241 4.093 0 0 2.417.675 3.218.929.892-.074 1.908.241 2.58.617a4.67 4.67 0 0 1 1.576 1.433s.382.319.452.814c.2.458.336.953.403 1.469.038.302-.038.534-.181.699.432 6.635-1.36 13.232-3.38 19.538l-.2.622-.128.394c-2.178 6.685-4.678 13.322-5.793 20.292-.746 4.656-.723 9.474-.175 14.152l.038.322c.54 4.422 1.577 9.383 4.388 12.942 1.433 1.816 3.132 2.624 5.304 3.209l.119.031c1.965.518 3.993 1.251 6.019 1.473 1.88.205 3.456-.494 5.148-1.15l.002-.002c3.565-3.155 5.183-7.75 6.379-12.387 3.099-12 2.714-24.457.957-36.633-.917-6.362-2.164-12.669-3.406-18.973-.621-3.151-1.29-6.296-1.846-9.458l-.33-1.861a103.145 103.145 0 0 1-.51-3.108c-.202-1.397-.263-2.771-.333-4.176-1.707-2.83-4.185-5.161-7.056-6.833-2.056-1.198-4.232-2.029-6.478-2.631-6.42-1.731-13.42-1.609-19.88-2.94-2.17-.447-4.23-1.11-6.29-1.905l-.28-.11c-.945-.367-1.908-.572-2.377.542-.334.792-.136 1.616.365 2.282 1.228 1.632 3.695 2.388 5.552 2.976 1.118.355 2.259.636 3.412.845 1.154.21 2.312.262 3.419.67.426.157.51.835 0 .955-1.403.328-2.814.047-4.209-.226a29.32 29.32 0 0 1-4.506-1.274c-.27-.1-.55-.205-.835-.317l-.215-.085c.222.161.444.32.667.478.06.042.024.154-.055.127-3.447-1.287-6.584-3.608-9.014-6.355l-.12-.138c-.856-.98-2.806-3.948-4.45-3.121-1.543.775 1.088 3.762 2.088 4.984l.116.143c1.136.03 2.237.737 3.158 1.308 1.6.992 3.27 1.845 4.973 2.644 3.385 1.592 6.978 2.714 10.327 4.386.044.023.01.08-.032.074-2.131-.341-4.24-.884-6.3-1.558l-.092-.029-.091-.03a57.923 57.923 0 0 1-3.805-1.41 39.424 39.424 0 0 1-4.061-1.923c-1.192-.651-2.514-1.824-3.896-1.997a1.772 1.772 0 0 0-.393-.011c-1.586.133-.274 2.762.17 3.549a18.934 18.934 0 0 0 2.602 3.571c2.035 2.211 4.5 3.963 7.168 5.326.911.465 1.843.875 2.79 1.252Z" clip-rule="evenodd"></path><path fill="#fff" fill-rule="evenodd" d="M129.727 53.95c11.996 0 29.554 8.013 30.875 15.723 1.556 9.086 5.012 43.251 3.13 54.431-1.881 11.181-9.218 19.442-25.443 19.442s-28.336-8.852-31.116-11.891c-2.781-3.039-6.15-12.497-6.15-12.497s-8.883-1.507-8.925-8.591c-.04-7.084 4.463-9.273 4.463-9.273s-2.43-29.388 2.678-36.667c5.109-7.279 18.492-10.678 30.488-10.678Z" clip-rule="evenodd"></path><path fill="#000" fill-rule="evenodd" d="M165.945 91.374c.657 7.142.904 14.345 1.031 21.514.122 6.793-.475 13.877-4.344 19.685-3.382 5.081-8.533 8.769-14.269 10.76-3.264 1.135-6.879 1.555-10.326 1.659a40.124 40.124 0 0 1-5.337-.207 49.152 49.152 0 0 0-.671-.063c-1.499-.134-2.986-.267-4.079-1.4-.344-.357-.34-1.09.17-1.323.969-.441 1.626-.488 2.689-.342.881.12 1.764.215 2.651.277 1.902.133 3.816.137 5.717-.009 3.495-.268 7.069-1.255 10.242-2.752 4.976-2.35 9.25-6.201 11.557-11.254 2.645-5.786 2.512-12.476 2.388-18.707l-.005-.255c-.137-6.911-.393-13.801-.993-20.69-.227-2.605-.551-5.197-.875-7.79-.092-.729-.183-1.459-.272-2.19a71.575 71.575 0 0 0-.839-5.27 46.388 46.388 0 0 0-.347-1.573c-.091-.393-.182-.785-.265-1.18a3.645 3.645 0 0 1-.434.043c-.883.03-1.848-.186-2.503-.814a1.835 1.835 0 0 1-.955.298c-2.349.117-4.721.065-7.088.013-1.293-.028-2.585-.056-3.871-.057a3151.224 3151.224 0 0 0-12.627.016c-3.094.012-6.193.024-9.283-.058a205.77 205.77 0 0 0-1.975-.04c-2.768-.048-5.576-.097-8.28-.599-1.126 4.004-1.086 8.402 1.261 11.978.663 1.008.125 2.196-.739 2.826-.883.642-2.471 1.628-3.83 1.729l-.159.354c-.079.177-.159.353-.236.53-.648 1.477-1.232 2.964-1.641 4.53a34.688 34.688 0 0 0-.545 2.45c.013.145.026.289.041.433 0 .015.002.03.004.046l.026.165.057.305c.058.313.117.625.179.936.197 1.004.349 2.016.457 3.033.196 1.86.177 4.278-1.636 5.379-.969.589-2.131.528-3.156.133-.571-.221-1.072-.518-1.588-.824l-.32-.189a12.39 12.39 0 0 0-.506-.276 10.128 10.128 0 0 1-.63-.351 2.324 2.324 0 0 1-.29-.22 7.933 7.933 0 0 0-1.732.604c-1.008.501-1.893 1.226-2.645 2.059-1.6 1.773-2.079 4.271-1.855 6.59.209 2.158 1.056 4.637 2.761 6.072.742.625 1.667.991 2.645.981.482-.005.926-.106 1.39-.229.199-.052.417-.075.635-.097.287-.03.573-.06.813-.156.627-.252 1.4.515 1.145 1.145-.057.14-.107.275-.155.406-.114.311-.219.595-.389.856a96.005 96.005 0 0 0 5.705 8.283c1.292 1.682 2.746 3.177 4.206 4.678.616.633 1.233 1.268 1.84 1.918.903.968 1.279 2.874-.355 3.288-1.436.368-2.552-.95-3.438-1.995-.118-.14-.233-.275-.343-.401-3.877-4.411-6.807-9.475-8.179-15.192-.618.44-1.328.679-2.076.782a6.741 6.741 0 0 1-4.302-.843c-4.943-2.856-6.14-10.572-3.824-15.408a8.724 8.724 0 0 1 2.389-3.011.704.704 0 0 1-.06-.519c.09-.335.188-.665.291-.994a.288.288 0 0 1-.18-.307c.08-.805.156-1.61.233-2.414l.042-.44c-.01-.435-.023-.871-.036-1.308-.03-1-.06-2.002-.048-3.01.011-1.07.048-2.142.085-3.212.042-1.232.084-2.464.088-3.696.014-3.991.101-7.98.189-11.97.089-4.042.177-8.084.19-12.128.012-3.93.02-7.865-.083-11.792a3.87 3.87 0 0 1-.003-.082l-.001-.074c-.013-.482-.044-.989-.075-1.51-.174-2.872-.371-6.15 2.23-7.872.504-.334 1.134-.338 1.683-.122 1.58-1.102 3.562-1.632 5.457-1.939 2.794-.45 5.606-.721 8.42-.992.823-.08 1.646-.158 2.469-.242a47.924 47.924 0 0 1 5.803-.224c.994.022 1.994-.014 2.996-.05.945-.034 1.892-.068 2.836-.053 2.205.036 4.428.118 6.642.3.051-.006.103-.01.155-.015l.158-.015c3.353-.322 6.703-.151 10.055.019.811.04 1.623.082 2.435.116 3.967.167 8.156.577 11.719 2.477.458.244.846.521 1.177.83a3.73 3.73 0 0 1 1.304.419c1.147-.232 2.427.282 2.699 1.613.395 1.95.545 3.918.308 5.897l-.009.076-.008.07c.479 1.835.447 3.84.049 5.65.168 2.287.264 4.58.277 6.87.002.347.007.695.012 1.044.018 1.245.036 2.499-.079 3.733-.13 1.388-.701 2.487-1.6 3.542-.17.199-.456.232-.694.183a.887.887 0 0 1-.164-.05c.444.952.811 1.95 1.171 2.928l.238.646c.698 1.872 1.374 3.777 1.853 5.717.972 3.912 1.612 7.898 1.984 11.912ZM98.621 109.08a4.513 4.513 0 0 0-.622-.382c-.027-.013-1.185-.389-.961.108.076.164-.123.348-.264.202-.402-.407-.178-.898.205-1.261.69-.658 1.721-.506 2.569-.349 1.178.218 2.324.733 3.317 1.395 1.069.712 2.389 1.699 2.6 3.05.192 1.24-1.041 2.608-2.311 1.777-.687-.45-1.168-1.12-1.651-1.791-.344-.479-.689-.959-1.11-1.362a11.929 11.929 0 0 0-1.602-1.271l-.17-.116Z" clip-rule="evenodd"></path><path fill="#000" fill-rule="evenodd" d="M147.453 124.138c.324-.564 1.07-1.086 1.753-1.006 3.059.359 3.054 4.069 1.873 6.235-1.048 1.92-3.215 3.048-5.384 2.883-2.279-.173-4.221-1.514-5.076-3.646-.565-1.411-.826-4.016.678-4.963a.079.079 0 0 1 .096.012c.72.839.749 2.098 1.38 3.032.587.869 1.499 1.586 2.567 1.697.797.083 1.605-.205 1.917-.922.168-.387.149-.598.086-.864l-.058-.232c-.2-.812-.29-1.43.168-2.226Zm.818-16.271c1.595.97 4.026 3.232 2.31 5.637-2.021 2.121-4.929-.311-6.362-1.41-1.329-.853-2.823 1.339-1.59 2.334 10.357 7.671 14.561-6.307 6.449-7.702-.894-.153-1.225.841-.807 1.141Zm-16.848-6.652c.98-1.47 3.215-1.254 3.754.49.292.945-.111 1.794-.09 2.738.017.797-.035 1.685-.279 2.457-.557 1.76-2.139 3.003-4.011 2.952-1.866-.052-3.51-1.233-4.291-2.897-.784-1.671-.618-3.399-.046-5.098.028-.081.135-.121.199-.052.677.719 1.172 1.479 1.685 2.285l.525.825c.402.622.985 1.417 1.735 1.367l.112-.011c.209-.018.177.023.337-.261.075-.131.061-.376.097-.531l.013-.052-.007-.029a3.399 3.399 0 0 1-.045-.462l-.002-.054c-.055-1.149-.379-2.626.314-3.667Zm24.823.978c-.176-1.88 2.466-2.297 3.344-.906.458.725.592 1.636.693 2.5l.047.409c.104.887.145 1.809-.239 2.636-.606 1.303-1.924 1.991-3.345 1.882a4.069 4.069 0 0 1-3.249-2.086c-.582-1.067-1.161-3.149-.454-4.262.043-.067.128-.076.187-.024.668.594.776 1.676 1.174 2.449.409.797 1.031 1.574 1.972 1.695.901.116 1.245-.377 1.015-1.236-.296-1.109-1.034-1.863-1.145-3.057Zm-24.109-12.154.432-.165c1.48-.56 3.513-1.206 4.716-.002.742.742.884 1.836.354 2.742-.642 1.098-1.794 1.125-2.906 1.286a15.349 15.349 0 0 0-3.729 1.032c-1.326.562-2.557 1.262-3.763 2.043-1.147.743-2.289 1.958-3.661 2.187-.056.009-.12-.015-.134-.077-.312-1.342.554-2.663 1.327-3.71.935-1.267 2.068-2.308 3.334-3.24 1.222-.901 2.619-1.552 4.03-2.096Zm26.888 4.772.132-.023c.897-.15 1.711-.115 2.387.596.517.542.716 1.245.469 1.963-.227.662-.735 1.334-1.472 1.473-2.488.468-5.245.39-7.746.036-1.144-.162-2.298-.361-3.413-.674l-.513-.149c-.93-.266-1.995-.544-2.671-1.228-.243-.246-.103-.598.188-.712 1.179-.462 2.795-.217 4.053-.253a58.794 58.794 0 0 0 4.384-.302c1.422-.148 2.799-.47 4.202-.727Z" clip-rule="evenodd"></path><path fill="#000" fill-rule="evenodd" d="M169.071 112.228c-.701-.94-1.959-2.175-3.232-2.108-.163.008-.224.185-.126.304.416.509.985.871 1.402 1.39.494.615.85 1.356 1.082 2.106.337 1.089.43 2.321.13 3.429-.529 1.952-2.202 3.383-4.027 4.113-1.806.723-3.98.97-5.688-.089-2.521-1.565-4.66-3.82-7.829-3.864-.742-.011-1.264.329-1.575.814-.313-.468-.829-.798-1.552-.807-3.553-.04-6.204 2.407-9.186 3.932-2.016 1.031-4.623.711-6.702.03-1.962-.642-4.091-1.932-4.83-3.969-.409-1.125-.317-2.438.102-3.547a6.295 6.295 0 0 1 1.228-2.006c.546-.594 1.264-.968 1.824-1.532.114-.115.024-.294-.127-.304-2.376-.161-4.521 2.677-4.969 4.736-.442 2.027.217 4.05 1.55 5.597 2.711 3.146 7.731 4.183 11.638 3.259 3.163-.748 6.166-2.471 9.472-2.224.725.054 1.245-.248 1.559-.706.314.472.838.78 1.568.709 3.081-.298 5.831 1.885 8.822 2.418 2.381.424 4.953-.148 6.993-1.432 2.133-1.341 3.634-3.493 3.733-6.058.057-1.476-.376-3.003-1.26-4.191" clip-rule="evenodd"></path><path fill="#000" fill-rule="evenodd" d="M163.095 111.466c-3.17 1.527-7.594-.726-9.726-3.086-.776-.859-1.374-3.318-1.076-4.877.809-4.223 3.847-6.758 7.054-7.623 4.446-1.2 8.92 1.84 8.398 5.427-.494 3.4-1.244 8.332-4.65 10.159m-21.581-8.112c-.254 4.602-3.948 8.63-8.364 9.823-7.114 1.986-10.63-3.017-12.222-8.406-.159-.536-.531-2.17.468-3.573 3.926-5.515 13.478-4.575 18.248-3.06 1.397 1.335 1.968 3.264 1.87 5.216m25.026-7.938-.006.008-.049-.03.055.022m5.953.532c-.414-4.686-15.11-2.892-16.828-2.508-4.689 1.38-8.74 5.134-13.983 3.484-5.432-6.058-23.725-4.321-27.56-1.235-.726-.285-1.609-.132-2.544.137-4.803-.174-26.73 1.483-22.245 7.615.681.472 1.361-.008 1.38-.981 23.38-8.443 21.113-.535 23.886-1.459.423.122.865.199 1.252.28 2.146.691 2.874.478 3.157 2.888 1.942 18.609 26.714 12.186 24.683-3.078 2.011-.111 3.771-.981 5.898-.131 1.477 14.379 13.044 14.96 16.525 9.975 2.625-3.46 1.584-8.681 5.193-11.403 1.424 1.193 1.516-2.832 1.186-3.584" clip-rule="evenodd"></path></svg>